<mxfile host="app.diagrams.net" modified="2022-09-10T11:27:06.077Z" agent="5.0 (X11; Linux x86_64) AppleWebKit/537.36 (KHTML, like Gecko) Chrome/105.0.0.0 Safari/537.36" etag="SzBydEywHAMAEWxO1aBb" version="20.3.0" type="github">
  <diagram id="JAsVc6UqFgwjKA7qkS-v" name="Page-1">
    <mxGraphModel dx="2097" dy="653" grid="1" gridSize="10" guides="1" tooltips="1" connect="1" arrows="1" fold="1" page="1" pageScale="1" pageWidth="850" pageHeight="1100" math="0" shadow="0">
      <root>
        <mxCell id="0" />
        <mxCell id="1" parent="0" />
        <mxCell id="LTLFoVR0TI30m7DwemUT-1" value="" style="rounded=1;whiteSpace=wrap;html=1;" vertex="1" parent="1">
          <mxGeometry x="-170" y="210" width="490" height="250" as="geometry" />
        </mxCell>
        <mxCell id="LTLFoVR0TI30m7DwemUT-29" style="edgeStyle=orthogonalEdgeStyle;rounded=0;orthogonalLoop=1;jettySize=auto;html=1;" edge="1" parent="1" source="LTLFoVR0TI30m7DwemUT-7" target="LTLFoVR0TI30m7DwemUT-14">
          <mxGeometry relative="1" as="geometry" />
        </mxCell>
        <mxCell id="LTLFoVR0TI30m7DwemUT-31" style="edgeStyle=orthogonalEdgeStyle;rounded=0;orthogonalLoop=1;jettySize=auto;html=1;entryX=0;entryY=0.5;entryDx=0;entryDy=0;entryPerimeter=0;" edge="1" parent="1" source="LTLFoVR0TI30m7DwemUT-7" target="LTLFoVR0TI30m7DwemUT-11">
          <mxGeometry relative="1" as="geometry" />
        </mxCell>
        <mxCell id="LTLFoVR0TI30m7DwemUT-7" value="" style="rounded=1;whiteSpace=wrap;html=1;" vertex="1" parent="1">
          <mxGeometry x="-110" y="257.5" width="220" height="165" as="geometry" />
        </mxCell>
        <mxCell id="LTLFoVR0TI30m7DwemUT-11" value="" style="outlineConnect=0;dashed=0;verticalLabelPosition=bottom;verticalAlign=top;align=center;html=1;shape=mxgraph.aws3.internet_gateway;fillColor=#F58534;gradientColor=none;" vertex="1" parent="1">
          <mxGeometry x="290" y="304" width="69" height="72" as="geometry" />
        </mxCell>
        <mxCell id="LTLFoVR0TI30m7DwemUT-34" style="edgeStyle=orthogonalEdgeStyle;rounded=0;orthogonalLoop=1;jettySize=auto;html=1;entryX=1;entryY=0.5;entryDx=0;entryDy=0;strokeWidth=2;" edge="1" parent="1" source="LTLFoVR0TI30m7DwemUT-14" target="LTLFoVR0TI30m7DwemUT-7">
          <mxGeometry relative="1" as="geometry">
            <Array as="points">
              <mxPoint x="190" y="340" />
            </Array>
          </mxGeometry>
        </mxCell>
        <mxCell id="LTLFoVR0TI30m7DwemUT-14" value="" style="outlineConnect=0;dashed=0;verticalLabelPosition=bottom;verticalAlign=top;align=center;html=1;shape=mxgraph.aws3.virtual_private_cloud;fillColor=#F58534;gradientColor=none;" vertex="1" parent="1">
          <mxGeometry x="150" y="130" width="79.5" height="54" as="geometry" />
        </mxCell>
        <mxCell id="LTLFoVR0TI30m7DwemUT-22" value="External traffic egress" style="text;html=1;strokeColor=none;fillColor=none;align=center;verticalAlign=middle;whiteSpace=wrap;rounded=0;" vertex="1" parent="1">
          <mxGeometry x="200" y="346" width="80" height="30" as="geometry" />
        </mxCell>
        <mxCell id="LTLFoVR0TI30m7DwemUT-24" value="My new VPC" style="text;html=1;strokeColor=none;fillColor=none;align=center;verticalAlign=middle;whiteSpace=wrap;rounded=0;" vertex="1" parent="1">
          <mxGeometry x="-120.5" y="210" width="95.5" height="30" as="geometry" />
        </mxCell>
        <mxCell id="LTLFoVR0TI30m7DwemUT-26" value="&lt;b&gt;Private subnet 1&lt;/b&gt;" style="text;html=1;strokeColor=none;fillColor=none;align=center;verticalAlign=middle;whiteSpace=wrap;rounded=0;" vertex="1" parent="1">
          <mxGeometry x="-45" y="260" width="100" height="30" as="geometry" />
        </mxCell>
        <mxCell id="LTLFoVR0TI30m7DwemUT-27" value="" style="outlineConnect=0;dashed=0;verticalLabelPosition=bottom;verticalAlign=top;align=center;html=1;shape=mxgraph.aws3.ec2;fillColor=#F58534;gradientColor=none;" vertex="1" parent="1">
          <mxGeometry x="-41.5" y="293.5" width="76.5" height="93" as="geometry" />
        </mxCell>
        <mxCell id="LTLFoVR0TI30m7DwemUT-28" value="Workload" style="text;html=1;strokeColor=none;fillColor=none;align=center;verticalAlign=middle;whiteSpace=wrap;rounded=0;" vertex="1" parent="1">
          <mxGeometry x="-25" y="392.5" width="60" height="17.5" as="geometry" />
        </mxCell>
        <mxCell id="LTLFoVR0TI30m7DwemUT-32" value="Internal traffic ingress/egress" style="text;html=1;strokeColor=none;fillColor=none;align=center;verticalAlign=middle;whiteSpace=wrap;rounded=0;" vertex="1" parent="1">
          <mxGeometry x="200" y="240" width="80" height="30" as="geometry" />
        </mxCell>
      </root>
    </mxGraphModel>
  </diagram>
</mxfile>
